<svg xmlns="http://www.w3.org/2000/svg" xmlns:xlink="http://www.w3.org/1999/xlink" viewBox="0 0 344.11 344.11"><defs><style>.cls-1{stroke:#231f20;stroke-width:0.75px;fill:url(#linear-gradient);}.cls-1,.cls-2,.cls-3,.cls-4,.cls-5{stroke-miterlimit:10;}.cls-2,.cls-3,.cls-4,.cls-5{stroke:#fff;stroke-width:3px;}.cls-2{fill:url(#linear-gradient-2);}.cls-3{fill:none;}.cls-4{fill:url(#radial-gradient);}.cls-5{fill:url(#radial-gradient-3);}</style><linearGradient id="linear-gradient" x1="0.38" y1="172.06" x2="343.74" y2="172.06" gradientUnits="userSpaceOnUse"><stop offset="0" stop-color="#fcb238"/><stop offset="0.25" stop-color="#fba836"/><stop offset="0.67" stop-color="#f78c2f"/><stop offset="1" stop-color="#f37229"/></linearGradient><linearGradient id="linear-gradient-2" x1="21.14" y1="159.62" x2="324.78" y2="159.62" xlink:href="#linear-gradient"/><radialGradient id="radial-gradient" cx="131.91" cy="211.08" r="226.66" gradientUnits="userSpaceOnUse"><stop offset="0" stop-color="#d6b098"/><stop offset="0.11" stop-color="#ddbeaa"/><stop offset="0.37" stop-color="#ecdacf"/><stop offset="0.62" stop-color="#f6eee9"/><stop offset="0.83" stop-color="#fdfbf9"/><stop offset="1" stop-color="#fff"/></radialGradient><radialGradient id="radial-gradient-3" cx="131.91" cy="260.6" r="204.26" gradientUnits="userSpaceOnUse"><stop offset="0" stop-color="#cfbca7"/><stop offset="0.02" stop-color="#d1bfaa"/><stop offset="0.31" stop-color="#e5dacf"/><stop offset="0.58" stop-color="#f3efe9"/><stop offset="0.81" stop-color="#fcfbf9"/><stop offset="1" stop-color="#fff"/></radialGradient></defs><title>Asset 1</title><g id="Layer_2" data-name="Layer 2"><g id="Layer_1-2" data-name="Layer 1"><circle class="cls-1" cx="172.06" cy="172.06" r="171.68"/><path class="cls-2" d="M21.14,139.4c13,39.1,57.34,40.4,57.34,40.4,50.82,1.3,89.92-40.4,89.92-40.4,41.7,43,65.15,39.16,82.1,40.43,48.21,0,74.28-40.43,74.28-40.43"/><line class="cls-3" x1="303.93" y1="145.92" x2="324.78" y2="139.4"/><line class="cls-3" x1="324.78" y1="139.4" x2="324.78" y2="153.74"/><path class="cls-4" d="M120.18,260.6l-19.44-82.89c48.11-9.08,67.66-38.31,67.66-38.31l9.12,121.2"/><path class="cls-4" d="M234.86,260.6l15.64-80.77c-35.19,6.49-82.1-40.43-82.1-40.43l9.12,121.2"/><line class="cls-5" x1="120.18" y1="260.6" x2="234.86" y2="260.6"/></g></g></svg>